<svg xmlns="http://www.w3.org/2000/svg" version="1.1" xmlns:xlink="http://www.w3.org/1999/xlink" xmlns:svgjs="http://svgjs.dev/svgjs" width="1000" height="1000"><g clip-path="url(#SvgjsClipPath1014)"><rect width="1000" height="1000" fill="#ffffff"></rect><g transform="matrix(18.42105263157895,0,0,18.42105263157895,150,260.52631578947364)"><svg xmlns="http://www.w3.org/2000/svg" version="1.1" xmlns:xlink="http://www.w3.org/1999/xlink" xmlns:svgjs="http://svgjs.dev/svgjs" width="38.000000pt" height="26.000000pt"><svg version="1.0" xmlns="http://www.w3.org/2000/svg" width="38.000000pt" height="26.000000pt" viewBox="0 0 38.000000 26.000000" preserveAspectRatio="xMidYMid meet">
<metadata>
Created by potrace 1.10, written by Peter Selinger 2001-2011
</metadata>
<g transform="translate(0.000000,26.000000) scale(0.100000,-0.100000)" fill="#000000" stroke="none">
<path d="M122 164 c-24 -31 -42 -58 -40 -59 2 -2 20 0 41 4 l37 9 0 -39 c0
-35 2 -39 26 -39 25 0 26 2 19 36 l-6 36 40 -4 c23 -2 40 -1 39 2 -2 3 -19 29
-38 57 -46 69 -63 68 -118 -3z"></path>
</g>
</svg></svg></g></g><defs><clipPath id="SvgjsClipPath1014"><rect width="1000" height="1000" x="0" y="0" rx="350" ry="350"></rect></clipPath></defs></svg>